<?xml version="1.0" encoding="utf-8"?>
<!-- Generator: Adobe Illustrator 24.1.0, SVG Export Plug-In . SVG Version: 6.00 Build 0)  -->
<svg version="1.1" xmlns="http://www.w3.org/2000/svg" xmlns:xlink="http://www.w3.org/1999/xlink" x="0px" y="0px"
	 viewBox="0 0 72 72" style="enable-background:new 0 0 72 72;" xml:space="preserve">
<style type="text/css">
	.st0{fill:#FEF9E7;}
</style>
<g id="Layer_1">
</g>
<g id="Layer_2">
	<ellipse class="st0" cx="35.1" cy="36" rx="35.1" ry="36"/>
	<path d="M17.3,38.5V10.9h10.3c1.9,0,3.5,0.3,5,1c1.4,0.7,2.6,1.7,3.4,3c0.8,1.3,1.2,2.9,1.2,4.8c0,1.8-0.4,3.4-1.2,4.7
		c-0.8,1.3-2,2.3-3.4,3c-1.4,0.7-3.1,1-5,1h-5.3v10.2H17.3z M22.4,23.9h5.3c0.9,0,1.7-0.2,2.3-0.5c0.7-0.4,1.2-0.9,1.6-1.5
		c0.4-0.6,0.6-1.4,0.6-2.2c0-0.9-0.2-1.6-0.6-2.2c-0.4-0.6-0.9-1.1-1.6-1.5c-0.7-0.4-1.4-0.5-2.3-0.5h-5.3V23.9z"/>
	<path d="M32,59.1l-7.4-27.6H30L35.8,55h-1.4l6-23.5h5.3l6,23.5h-1.4l5.8-23.5h5.4l-7.4,27.6h-5.8l-6.1-22.8h1.6l-6.1,22.8H32z"/>
</g>
</svg>
