<?xml version="1.0" encoding="utf-8"?>
<!-- Generator: Adobe Illustrator 24.1.0, SVG Export Plug-In . SVG Version: 6.00 Build 0)  -->
<svg version="1.1" id="Layer_1" xmlns="http://www.w3.org/2000/svg" xmlns:xlink="http://www.w3.org/1999/xlink" x="0px" y="0px"
	 viewBox="0 0 569.2 200" style="enable-background:new 0 0 569.2 200;" xml:space="preserve">
<g id="Paul_logo">
	<g id="Signature_Landscape">
		<g>
			<path d="M292.3,103.1c1.6-2.4,3.4-4.6,4.7-7.1c2.3-4.3,4.2-8.8,6.4-13.1c1.7-3.4,3.4-6.7,5.2-10c0.3-0.5,1.1-0.8,1.7-0.9
				c1.3-0.2,2.3,0.5,2.8,1.6c0.4,0.8,0.5,1.7,0.5,2.6c-0.4,5.5-0.9,11.1-1.5,16.6c-0.6,5.3-1.6,10.5-2,15.8
				c-0.3,4.6-1.3,9.2-0.1,13.8c0.2,0.7,0.4,1.3,0.7,2.3c1-1.1,1.9-1.9,2.5-2.9c2.8-4.2,5.6-8.3,8.2-12.6c2.8-4.7,5.4-9.5,8-14.3
				c3.6-6.6,6.9-13.4,10.5-20c2.4-4.4,5-8.6,7.6-12.9c4.8-8,10.2-15.8,13.8-24.5c0.8-2,1.8-4.1,2.1-6.3c0.4-2.7-0.5-5.3-1.9-7.6
				c-0.7-1.1-0.8-2.1,0.5-2.9c1.9,0.8,2.6,2.5,3.4,4.2c2.1,4.7,1.6,9.3-0.7,13.8c-2.4,4.6-4.5,9.2-7,13.7c-2.2,4-4.7,7.7-7,11.6
				c-1.1,1.9-2,3.8-3,5.7c-3.8,7.3-7.6,14.6-11.4,21.8c-4.2,7.9-8.2,15.9-12.7,23.6c-2.4,4.1-5.3,7.9-8.2,11.7
				c-1.8,2.4-4.2,2.9-6.9,1.7c-2.3-1-2.7-3.2-3.2-5.2c-1-3.8-0.6-7.8-0.2-11.6c0.6-5.9,1.5-11.8,2.2-17.7c0.5-3.6,1-7.2,1.4-10.8
				c0.1-0.6,0-1.3,0-1.9c-0.1,0-0.2-0.1-0.4-0.1c-0.8,1.6-1.8,3.2-2.4,4.9c-2.5,7.2-6.2,13.7-10.3,20.1c-0.8,1.3-1.5,2.7-2.6,3.7
				c-1.7,1.5-4.1,0.9-4.8-1.3c-0.7-1.9-1-4-1.2-6c-0.7-6-0.1-11.9,0.5-17.9c0.9-8.5,3.2-16.6,5.8-24.6c1-3.1,2.2-6.1,3.2-9.2
				c0.3-0.9,0.3-1.8,0.6-2.7c0.2-0.8,0.4-1.8,1.6-1.6c1.1,0.1,2.2,0.2,2.8,1.5c0.7,1.5,0.1,2.8-0.4,4.1c-3.3,7.8-6.2,15.8-7.8,24.1
				c-0.8,4.1-1.6,8.2-1.8,12.3c-0.3,4.7,0.1,9.5,0.1,14.3C291.9,102.9,292.1,103,292.3,103.1z"/>
			<path d="M383.3,92c0.5-0.6,0.9-1.2,1.4-1.8c1.1-1.2,2.2-2.3,3.2-3.4c3.1-3.2,6.3-2.3,9.5,0.4c2.3,1.9,3.7,4.6,4.3,7.6
				c1.3,5.9-1.5,10.2-7.4,10.6c-4,0.2-8-0.4-11.8-1.8c-0.6-0.2-1.3-0.2-1.9-0.1c-2.3,0.4-4-1.3-4-3.6c0.2-7.8,2.3-15.1,4.4-22.5
				c0.8-3,1.3-6.1,0.3-9.2c-0.3-1.1,0.7-2.6,1.9-3c1.1-0.4,3.1,0.1,3.6,1.1c0.4,1.1,0.8,2.3,0.7,3.5c-0.4,6.8-3,13.1-4.5,19.7
				c-0.2,0.8-0.2,1.6-0.4,2.4C382.9,91.7,383.1,91.8,383.3,92z M391.7,101.3C391.7,101.2,391.7,101.2,391.7,101.3
				c0.3-0.1,0.5-0.1,0.8-0.1c3,0,4.6-1.7,4.6-4.7c0-2.5-1-4.6-2.4-6.5c-0.8-1.2-2-1.3-3.1-0.3c-2.6,2.4-5.2,4.9-6.7,8.1
				c-0.7,1.4-0.1,2.6,1.4,2.9C388,101,389.9,101.1,391.7,101.3z"/>
			<path d="M450.2,85c1.2-0.1,2.5,0,3.6-0.2c2.5-0.4,4.9-0.9,7.4-1.2c1-0.1,2,0,3,0.3c0.9,0.2,0.7,1.4-0.3,2.1
				c-2.4,1.7-5.2,2.4-8.1,3c-2.1,0.4-4.3,0.7-6.4,1c-0.3,5.4,0.3,10.4,1.5,15.4c0.3,1.1-0.1,1.9-0.9,2.3c-0.6,0.3-1.6,0.3-2.3,0
				c-1.5-0.6-2-2-2.2-3.4c-0.6-4.4-1.8-8.8-1.3-13.3c0.1-0.9-0.3-1.3-1.2-1.3c-2-0.1-4-0.5-5.7-1.7c-1.1-0.7-1.7-2-1.3-3
				c0.4-1,1.7-1.3,3.1-0.9c1.3,0.4,2.6,0.7,3.9,1.1c1.2,0.4,1.7-0.2,1.8-1.2c0.4-2.9,0.8-5.7,1.2-8.6c0.2-1.6,0.4-3.2,0.6-4.8
				c0.1-0.8,0.1-1.7-0.1-2.5c-0.4-2.2,0-3,2.1-3.7c0.3-0.1,0.6-0.1,0.9,0c2.1,1,2.8,2.4,2.5,4.8c-0.6,4.8-1.2,9.5-1.8,14.3
				C450.2,83.8,450.2,84.3,450.2,85z"/>
			<path d="M479.6,95.1c1,1.9,2.4,3.2,4.3,4c2.5,1,5,0.5,7.6,0.2c1.6-0.2,3.2-0.3,4.9-0.4c-0.1,1.9-2,4-3.6,4.4c-3,0.7-6,0.7-9-0.1
				c-4.2-1.1-6.7-4.1-9-7.4c-2.6-3.7-2.5-7.6-0.7-11.6c1.4-3.1,4-5,7.1-6.3c0.8-0.3,2-0.2,2.9,0.1c2.3,0.7,4.3,1.7,6,3.5
				c2,2.1,1.8,4.4,0.9,6.5c-1.6,3.8-4.5,6.4-8.9,6.6c-0.1,0-0.3,0-0.4,0C481,94.8,480.4,95,479.6,95.1z M479.9,90.4
				c3.1,0,6.7-2.9,7.1-5.9c0.2-1.1,0-2.2-1.1-2.7c-0.9-0.3-2.2-0.7-2.9-0.3c-2.3,1.5-4.4,3.4-5,6.3
				C477.8,89.4,478.5,90.4,479.9,90.4z"/>
			<path d="M412.9,85.6c0.7,1.1,1.6,1.2,2.7,1.2c2.3-0.1,4.7-0.4,6.9,0c1.7,0.3,3.5,1.2,4.8,2.4c2.1,1.9,3.9,4.3,5.8,6.4
				c2,2.3,0.5,4.7-1.5,5.5c-1.9,0.8-4.1,1.3-6.1,1.4c-3.5,0.2-7,0.2-10.5,0c-1.1,0-2.2-0.5-3.1-1.1c-1.4-0.9-1.4-2.1-0.3-3.4
				c1-1.2,2.4-1.3,3.5-0.2c1.2,1.2,2.8,1.1,4.3,1c2.6-0.2,5.2-0.5,7.7-0.8c1-0.1,1.4-1,0.9-1.7c-1.2-1.5-2.6-2.8-4-4.1
				c-1.7-1.7-3.9-1.5-6.1-1.5c-2.1,0-4.3,0-6.3-0.5c-1.9-0.5-3.5-1.9-3.5-4.1c0-2.3,1.4-3.8,3.3-4.9c1.3-0.7,2.7-1.2,4-1.8
				c2-0.9,5,0.6,5.4,2.7c0.1,0.7-0.1,1.6-0.6,2.1c-0.3,0.3-1.3,0.2-1.8,0C416.4,83.4,414.3,83.8,412.9,85.6z"/>
			<path d="M509.5,87.1c-0.8,4.3-1.7,8.4-2.3,12.5c-0.3,2-0.1,4.1-0.1,6.2c0,1-1,2.2-1.9,2.2c-1.9,0-4.1-1.2-3.8-3.5
				c0.6-4.2,1.1-8.4,1.7-12.6c0.5-3.7,1.5-7.4,0.8-11.2c-0.1-0.7,0.5-1.9,1.2-2.3c0.5-0.3,1.6,0,2.3,0.3c0.7,0.3,1.2,1,1.6,1.7
				c1,1.8,1.6,2.1,3.6,2c5-0.3,10-0.5,15-0.8c2-0.1,3.9-0.3,5.9-0.4c0.6,0,1.2,0.4,1.8,0.7c-0.4,0.4-0.6,1-1.1,1.3
				c-2.2,1.7-5,1.9-7.6,2.3c-3.9,0.6-7.9,1-11.8,1.5C513,87,511.3,87,509.5,87.1z"/>
			<path d="M362.9,78.3c-0.1,3.7-1.1,6.5-2.4,9.2c-1.2,2.6-2.5,5.2-3.9,7.7c-0.7,1.2-0.6,2.1,0.4,3c1.5,1.4,3.1,2.8,5.4,2.5
				c0.4,0,1.2,0.7,1.3,1.2c0.2,1.1-0.3,2-1.5,2.2c-2.5,0.4-4.7-0.3-6.7-1.8c-2.8-2.2-2.8-2.2-5.4,0.2c-1.1,1-2.1,1.2-3.5,0.6
				c-1.1-0.5-1.5-1.2-0.7-2.1c0.8-1,1.8-2,2.8-2.9c1.3-1.1,1.2-2.2,0.6-3.7c-0.7-2-1.4-4.1-1.6-6.2c-0.5-4.6,1.4-8.4,4.8-11.6
				c0.8-0.8,1.6-1.6,2.4-2.4c2.3-2.4,5.9-1.8,7.2,1.4C362.5,76.7,362.7,77.8,362.9,78.3z M353.2,92.5c1.2-1.3,2.4-2.4,3.2-3.6
				c0.8-1.2,1.4-2.6,1.9-4c0.9-2.3,1.8-4.6,1.4-7.1c-0.1-0.8-0.3-1.8-1.3-1.8c-0.7,0-1.4,0.6-1.9,1c-2.6,2.3-3.5,5.5-4.1,8.7
				C351.8,88,352.1,90.2,353.2,92.5z"/>
		</g>
		<g>
			<path d="M82.7,93.4c-2.1,0.2-4.1,0.3-6.1,0.5c-2.4,0.3-4.9,0.8-7.3,1c-4.8,0.4-9.7,0.8-14.5,0.9c-2.7,0.1-5.4-0.4-8.1-0.7
				c-1.6-0.2-3.1-0.3-4.7-0.6c1.6,0.4,3.1-1.1,4.8,0c0.2,0.2,0.7,0,1,0c1.8-0.2,3.7-0.5,5.5-0.7c4-0.4,8-0.7,11.9-1
				c3.5-0.3,7-0.4,10.5-0.9c2.4-0.3,4.7-0.9,7-1.5c0.6-0.2,1.4-1.1,1.5-1.8c1.5-6.9,2.9-13.8,4.1-20.8c0.3-1.7-0.2-3.5-0.3-5.3
				c0-0.3-0.2-0.7-0.1-0.8c0.4-0.7,1-1.4,1.5-2c0.8,0.8,2.1,1.5,2.2,2.3c0.2,2.8,0.3,5.6-0.1,8.4c-0.5,3.7-1.4,7.4-2.1,11.2
				c-0.4,2-0.9,4-1.3,6.1c-0.2,1.2,0.1,1.9,1.4,1.6c1.2-0.2,2.4-0.4,3.6-0.6c5.3-1.2,10.7-2.4,16-3.6c5.6-1.3,11.2-2.7,16.6-4.6
				c1.9-0.7,4-1,5.9-1.7c3.2-1.1,6.3-2.3,9.4-3.7c2.3-1,4.4-2.5,6.7-3.6c2.8-1.3,5-3.3,7-5.5c1.8-2,3.4-4.2,4.9-6.4
				c1.8-2.7,3.4-5.6,4.9-8.5c2.2-4.5,3.6-9.2,3-14.2c-0.2-2.1-1-3.9-2.4-5.6c-3.3-3.8-7.5-5.8-12.3-6.7c-6.3-1.2-12.8-1.2-19.1-0.4
				c-7.6,0.9-15.1,2.5-22.5,4.2c-5.3,1.2-10.3,3.1-15.5,4.7c-4.5,1.4-9,2.7-13.4,4.3c-6.3,2.3-12.7,4.7-18.9,7.4
				c-5.4,2.3-10.8,4.8-16.1,7.4c-2.6,1.3-5.1,3-7.5,4.6c-0.5,0.3-0.8,0.9-1.1,1.4c0.5,0.4,1,0.8,1.5,1.1s1,0.4,1.5,0.6
				c1.1,0.5,2,2,1.6,2.7c-0.7,1.1-1.7,1-2.8,0.5c-1.9-0.9-3.8-1.8-5.7-2.8c-1.4-0.7-1.3-2.3,0-3.2c2.1-1.6,4.3-3.2,6.3-4.9
				c2.4-2.1,5.2-3.2,8.1-4.2c2.2-0.7,4.3-1.6,6.3-3c1.4-0.9,2.9-1.6,4.5-2.2c2.8-1.2,5.7-2.3,8.6-3.3c2.3-0.8,4.7-1.3,7-2.1
				c3.2-1.1,6.2-2.5,9.4-3.6c1.8-0.6,3.7-1,5.6-1.5c3.8-1.2,7.6-2.6,11.5-3.8c3-0.9,6.1-1.5,9.2-2.3c2.7-0.7,5.4-1.7,8.1-2.3
				c4.3-0.8,8.6-1.4,12.9-1.8c4.8-0.5,9.7-0.9,14.5-0.8c5.9,0.2,11.7,1.3,16.8,4.6c6.3,4.2,8.6,10.5,6.6,17.8
				c-1,3.7-2.5,7.2-4.6,10.4s-3.9,6.7-6.2,9.7c-4,5.3-8.7,9.8-15,12.7c-3.6,1.7-7.2,3.5-11,4.6c-3.7,1.1-7.3,2.3-11.1,3.3
				c-5,1.4-10.1,2.7-15.2,3.9c-4.4,1-8.8,1.7-13.2,2.6c-2.1,0.4-4.2,1-6.3,1.6c-0.5,0.1-1,0.8-1.2,1.3c-1.5,5.1-1.9,10.3-1.9,15.5
				c0,1.7-0.1,3.4,0.1,5c0.2,1.8,0.5,3.5,1.1,5.2c0.3,1,0,1.7-0.7,2.1c-0.5,0.3-1.3,0.2-1.8,0c-1.9-0.9-2.3-2.8-2.4-4.5
				c-0.2-3.5-0.3-7,0-10.5c0.4-4.1,1.2-8.2,1.8-12.3C82.7,94.2,82.7,93.9,82.7,93.4z"/>
			<path d="M219.8,114.3c-0.3-5.6,1.5-10.6,4.1-15.2c2.5-4.3,5.2-8.5,8-12.6c4.2-6.1,8.6-11.9,13.7-17.3c3.1-3.3,6.1-6.9,9.2-10.3
				c0.3-0.4,0.7-0.8,1.1-1c0.7-0.4,1.7-1.2,2.1-1c0.9,0.6,1.5,1.6,2.1,2.5c0.1,0.2-0.2,1-0.5,1.3c-8.1,7.4-14.8,15.9-21.4,24.5
				c-4.9,6.4-9.1,13.2-12.3,20.6c-1.7,3.9-1.9,8-2,12.2c0,1.2-0.2,2.2-1.6,2.4c-1,0.1-2.2-1.2-2.4-2.4c0-0.1,0-0.2,0-0.3
				C219.8,116.6,219.8,115.4,219.8,114.3z"/>
			<path d="M152.4,106.8c-1,0.5-1.7,0.6-2.1,1c-2.7,2.8-6,4.7-9.5,6.3c-1.8,0.9-5.8-0.1-6.9-1.7c-0.5-0.7-0.2-4.3,0.4-5.1
				c2.6-3.2,5.8-5.8,9.2-8.1c1.5-1,2.8-2.3,4.3-3.1c1.9-1,3.9-2,6-2.4c2.3-0.3,4.2,1.4,6,2.8c0.5,0.4,0.5,1.8,0.3,2.7
				c-0.6,2.5-1.4,4.9-2.1,7.4c-0.1,0.5,0,1,0.1,1.6c0.5-0.1,1,0,1.4-0.3c1.6-0.8,3.2-1.8,4.8-2.6c0.6-0.3,1.1-0.8,1.7-0.8
				c0.6,0,1.4,0.3,1.9,0.8c0.2,0.2-0.2,1.3-0.6,1.6c-2.6,2-5.1,4.2-8,5.8c-1.4,0.8-3.6,0.6-5.3,0.2c-1.5-0.4-1.5-2.3-1.6-3.7
				C152.2,108.6,152.3,108,152.4,106.8z M154.1,99c-0.8-1.3-1.8-1.4-3-0.6c-3,2.1-6.1,4-9.1,6.2c-1.3,1-2.4,2.5-3.4,3.8
				c-0.3,0.4-0.3,1.2,0,1.6c0.1,0.2,1,0.3,1.5,0.1c1.1-0.4,2.2-0.9,3.2-1.5C147.4,106.1,150.9,102.8,154.1,99z"/>
			<path d="M190.4,105.7c-1.3,0.3-2.2,0.3-3,0.7c-1.9,0.9-3.7,2-5.6,2.9c-3.4,1.7-7.9,1.1-10.1-1.4c-0.9-1-1.3-2.2-0.6-3.4
				c1-1.8,2.1-3.5,3.1-5.3c0.3-0.5,0.7-1,0.9-1.5c0.4-1.2,1.3-1.8,2.5-1.6c0.7,0.2,1.8,0.5,2,1.1c0.3,0.7,0,1.8-0.4,2.6
				c-0.7,1.3-1.8,2.3-2.6,3.6c-0.4,0.6-0.2,1.5-0.3,2.3c0.7,0.1,1.3,0.3,1.9,0.2c4.9-0.8,9.2-2.9,13.1-5.9c2.1-1.6,4.1-3.3,6.1-4.9
				c1.1-0.9,2-0.5,2.9,0.3c1,0.8,1.2,1.7,0.5,2.7c-1.4,2.1-2.9,4.1-4.2,6.2c-0.8,1.2-1.4,2.6-1.9,3.9c-0.4,1.1-0.1,2,1.3,2.4
				c1,0.2,1.1,0.8,0.4,1.6c-1.5,1.8-3,2.2-5,1.2c-1.7-0.9-2.5-3-1.9-5.1C189.9,107.5,190.1,106.9,190.4,105.7z"/>
		</g>
	</g>
	<g>
		<path d="M218.8,198.4v-33.3h21.7v5.2h-15.3v8.9h12.3v5h-12.3v14.2L218.8,198.4L218.8,198.4z"/>
		<path d="M245.3,198.4v-33.3h6.4v33.3H245.3z"/>
		<path d="M258.3,198.4v-33.3h6.4v28.3h14.6v5H258.3z"/>
		<path d="M284.9,198.4v-33.3h7.7l10.1,20.8l10.1-20.8h7.7v33.3h-6.4V176l-8.9,17.8h-5l-8.9-17.7v22.4h-6.4V198.4z"/>
		<path d="M338.5,199c-2.4,0-4.6-0.4-6.5-1.2s-3.4-2-4.5-3.6s-1.7-3.5-1.7-5.8h6.8c0,1,0.3,1.9,0.8,2.7s1.1,1.4,2,1.9
			c0.8,0.5,1.8,0.7,3,0.7c1,0,1.9-0.2,2.6-0.5s1.3-0.8,1.8-1.4c0.4-0.6,0.6-1.3,0.6-2.1c0-1-0.2-1.7-0.7-2.4
			c-0.5-0.6-1.1-1.2-1.9-1.6c-0.8-0.4-1.7-0.8-2.8-1.2c-1.1-0.4-2.2-0.7-3.3-1.1c-2.7-0.9-4.7-2-6-3.5c-1.4-1.4-2-3.3-2-5.7
			c0-2,0.5-3.7,1.4-5.1c1-1.4,2.3-2.5,4-3.3s3.7-1.1,5.9-1.1c2.3,0,4.2,0.4,5.9,1.2s3,1.9,4,3.4s1.5,3.2,1.6,5.1h-6.9
			c0-0.7-0.2-1.4-0.6-2.1c-0.4-0.7-0.9-1.2-1.6-1.6c-0.7-0.4-1.5-0.6-2.5-0.6c-0.8,0-1.6,0.1-2.3,0.4c-0.7,0.3-1.2,0.7-1.6,1.3
			s-0.6,1.2-0.6,2.1c0,0.8,0.2,1.5,0.6,2s0.9,1,1.6,1.4s1.5,0.8,2.5,1.1s2,0.7,3.1,1c1.7,0.6,3.2,1.2,4.6,2s2.5,1.8,3.3,3
			s1.2,2.9,1.2,4.9c0,1.7-0.5,3.4-1.4,4.9s-2.2,2.7-4,3.6C343.2,198.5,341.1,199,338.5,199z"/>
	</g>
</g>
</svg>
